<svg width="332" height="81" viewBox="0 0 332 81" fill="none" xmlns="http://www.w3.org/2000/svg">
<rect x="0.451014" y="0.451014" width="331.044" height="79.9628" rx="10.3733" fill="white" fill-opacity="0.9"/>
<rect x="0.451014" y="0.451014" width="331.044" height="79.9628" rx="10.3733" stroke="#EAECF0" stroke-width="0.902027"/>
<path fill-rule="evenodd" clip-rule="evenodd" d="M40.4324 66.4324C54.7918 66.4324 66.4324 54.7918 66.4324 40.4324C66.4324 26.073 54.7918 14.4324 40.4324 14.4324C26.073 14.4324 14.4324 26.073 14.4324 40.4324C14.4324 54.7918 26.073 66.4324 40.4324 66.4324Z" fill="#0B2E4C"/>
<path d="M28.4324 36.4324H45.0038V44.4324H28.4324V36.4324Z" fill="white"/>
<path d="M46.1467 36.4324H52.4324V44.4324H46.1467V36.4324Z" fill="#F77F00"/>
<path d="M84.3875 30.4324L81.2057 18.796H82.6375L85.0693 28.2733H85.1829L87.6602 18.796H89.2511L91.7284 28.2733H91.842L94.2738 18.796H95.7057L92.5238 30.4324H91.0693L88.5011 21.1596H88.4102L85.842 30.4324H84.3875ZM99.6825 30.6142C98.8946 30.6142 98.2033 30.4267 97.6086 30.0517C97.0177 29.6767 96.5556 29.1521 96.2222 28.4778C95.8927 27.8036 95.7279 27.0157 95.7279 26.1142C95.7279 25.2051 95.8927 24.4115 96.2222 23.7335C96.5556 23.0555 97.0177 22.529 97.6086 22.154C98.2033 21.779 98.8946 21.5915 99.6825 21.5915C100.47 21.5915 101.16 21.779 101.751 22.154C102.345 22.529 102.807 23.0555 103.137 23.7335C103.47 24.4115 103.637 25.2051 103.637 26.1142C103.637 27.0157 103.47 27.8036 103.137 28.4778C102.807 29.1521 102.345 29.6767 101.751 30.0517C101.16 30.4267 100.47 30.6142 99.6825 30.6142ZM99.6825 29.4096C100.281 29.4096 100.773 29.2562 101.16 28.9494C101.546 28.6426 101.832 28.2392 102.018 27.7392C102.203 27.2392 102.296 26.6975 102.296 26.1142C102.296 25.5309 102.203 24.9873 102.018 24.4835C101.832 23.9797 101.546 23.5725 101.16 23.2619C100.773 22.9513 100.281 22.796 99.6825 22.796C99.084 22.796 98.5916 22.9513 98.2052 23.2619C97.8188 23.5725 97.5329 23.9797 97.3472 24.4835C97.1616 24.9873 97.0688 25.5309 97.0688 26.1142C97.0688 26.6975 97.1616 27.2392 97.3472 27.7392C97.5329 28.2392 97.8188 28.6426 98.2052 28.9494C98.5916 29.2562 99.084 29.4096 99.6825 29.4096ZM105.354 30.4324V21.7051H106.649V23.0233H106.74C106.899 22.5915 107.187 22.2411 107.604 21.9721C108.021 21.7032 108.49 21.5687 109.013 21.5687C109.111 21.5687 109.235 21.5706 109.382 21.5744C109.53 21.5782 109.642 21.5839 109.718 21.5915V22.9551C109.672 22.9437 109.568 22.9267 109.405 22.904C109.246 22.8774 109.077 22.8642 108.899 22.8642C108.475 22.8642 108.096 22.9532 107.763 23.1312C107.433 23.3055 107.172 23.5479 106.979 23.8585C106.79 24.1653 106.695 24.5157 106.695 24.9096V30.4324H105.354ZM112.227 27.2506L112.204 25.5915H112.477L116.295 21.7051H117.954L113.886 25.8187H113.772L112.227 27.2506ZM110.977 30.4324V18.796H112.318V30.4324H110.977ZM116.522 30.4324L113.113 26.1142L114.068 25.1824L118.227 30.4324H116.522ZM119.532 30.4324V18.796H126.509V20.046H120.941V23.9778H125.987V25.2278H120.941V30.4324H119.532ZM129.752 18.796V30.4324H128.411V18.796H129.752ZM135.537 30.6142C134.696 30.6142 133.97 30.4286 133.361 30.0574C132.755 29.6824 132.287 29.1596 131.957 28.4892C131.631 27.8149 131.469 27.0309 131.469 26.1369C131.469 25.243 131.631 24.4551 131.957 23.7733C132.287 23.0877 132.745 22.5536 133.332 22.171C133.923 21.7846 134.612 21.5915 135.4 21.5915C135.855 21.5915 136.304 21.6672 136.747 21.8187C137.19 21.9703 137.594 22.2165 137.957 22.5574C138.321 22.8945 138.611 23.3415 138.827 23.8983C139.042 24.4551 139.15 25.1407 139.15 25.9551V26.5233H132.423V25.3642H137.787C137.787 24.8718 137.688 24.4324 137.491 24.046C137.298 23.6596 137.022 23.3547 136.662 23.1312C136.306 22.9078 135.885 22.796 135.4 22.796C134.866 22.796 134.404 22.9286 134.014 23.1937C133.628 23.4551 133.33 23.796 133.122 24.2165C132.914 24.6369 132.809 25.0877 132.809 25.5687V26.3415C132.809 27.0006 132.923 27.5593 133.15 28.0176C133.381 28.4721 133.702 28.8187 134.111 29.0574C134.52 29.2922 134.995 29.4096 135.537 29.4096C135.889 29.4096 136.207 29.3604 136.491 29.2619C136.779 29.1596 137.027 29.0081 137.236 28.8074C137.444 28.6028 137.605 28.349 137.719 28.046L139.014 28.4096C138.878 28.849 138.648 29.2354 138.327 29.5687C138.005 29.8983 137.607 30.1559 137.133 30.3415C136.66 30.5233 136.128 30.6142 135.537 30.6142ZM141.626 21.7051L143.717 25.2733L145.808 21.7051H147.353L144.535 26.0687L147.353 30.4324H145.808L143.717 27.046L141.626 30.4324H140.08L142.853 26.0687L140.08 21.7051H141.626ZM153.106 30.4324V21.7051H154.447V30.4324H153.106ZM153.788 20.2506C153.527 20.2506 153.301 20.1615 153.112 19.9835C152.926 19.8055 152.834 19.5915 152.834 19.3415C152.834 19.0915 152.926 18.8774 153.112 18.6994C153.301 18.5214 153.527 18.4324 153.788 18.4324C154.05 18.4324 154.273 18.5214 154.459 18.6994C154.648 18.8774 154.743 19.0915 154.743 19.3415C154.743 19.5915 154.648 19.8055 154.459 19.9835C154.273 20.1615 154.05 20.2506 153.788 20.2506ZM157.914 25.1824V30.4324H156.573V21.7051H157.869V23.0687H157.982C158.187 22.6256 158.498 22.2695 158.914 22.0006C159.331 21.7278 159.869 21.5915 160.528 21.5915C161.119 21.5915 161.636 21.7127 162.079 21.9551C162.522 22.1937 162.867 22.5574 163.113 23.046C163.359 23.5309 163.482 24.1445 163.482 24.8869V30.4324H162.141V24.9778C162.141 24.2922 161.963 23.7581 161.607 23.3756C161.251 22.9892 160.763 22.796 160.141 22.796C159.713 22.796 159.331 22.8888 158.994 23.0744C158.66 23.26 158.397 23.5309 158.204 23.8869C158.011 24.243 157.914 24.6748 157.914 25.1824ZM169.398 21.7051V22.8415H164.875V21.7051H169.398ZM166.194 19.6142H167.534V27.9324C167.534 28.3112 167.589 28.5953 167.699 28.7846C167.813 28.9703 167.957 29.0953 168.131 29.1596C168.309 29.2203 168.497 29.2506 168.694 29.2506C168.841 29.2506 168.962 29.243 169.057 29.2278C169.152 29.2089 169.228 29.1937 169.284 29.1824L169.557 30.3869C169.466 30.421 169.339 30.4551 169.177 30.4892C169.014 30.5271 168.807 30.546 168.557 30.546C168.178 30.546 167.807 30.4646 167.444 30.3017C167.084 30.1388 166.784 29.8907 166.546 29.5574C166.311 29.224 166.194 28.8036 166.194 28.296V19.6142ZM174.65 30.6142C173.81 30.6142 173.084 30.4286 172.474 30.0574C171.868 29.6824 171.4 29.1596 171.071 28.4892C170.745 27.8149 170.582 27.0309 170.582 26.1369C170.582 25.243 170.745 24.4551 171.071 23.7733C171.4 23.0877 171.859 22.5536 172.446 22.171C173.037 21.7846 173.726 21.5915 174.514 21.5915C174.969 21.5915 175.418 21.6672 175.861 21.8187C176.304 21.9703 176.707 22.2165 177.071 22.5574C177.435 22.8945 177.724 23.3415 177.94 23.8983C178.156 24.4551 178.264 25.1407 178.264 25.9551V26.5233H171.537V25.3642H176.9C176.9 24.8718 176.802 24.4324 176.605 24.046C176.412 23.6596 176.135 23.3547 175.775 23.1312C175.419 22.9078 174.999 22.796 174.514 22.796C173.98 22.796 173.518 22.9286 173.128 23.1937C172.741 23.4551 172.444 23.796 172.236 24.2165C172.027 24.6369 171.923 25.0877 171.923 25.5687V26.3415C171.923 27.0006 172.037 27.5593 172.264 28.0176C172.495 28.4721 172.815 28.8187 173.224 29.0574C173.633 29.2922 174.109 29.4096 174.65 29.4096C175.003 29.4096 175.321 29.3604 175.605 29.2619C175.893 29.1596 176.141 29.0081 176.349 28.8074C176.558 28.6028 176.719 28.349 176.832 28.046L178.128 28.4096C177.991 28.849 177.762 29.2354 177.44 29.5687C177.118 29.8983 176.721 30.1559 176.247 30.3415C175.774 30.5233 175.241 30.6142 174.65 30.6142ZM179.974 30.4324V21.7051H181.269V23.0233H181.36C181.519 22.5915 181.807 22.2411 182.224 21.9721C182.641 21.7032 183.11 21.5687 183.633 21.5687C183.731 21.5687 183.855 21.5706 184.002 21.5744C184.15 21.5782 184.262 21.5839 184.338 21.5915V22.9551C184.292 22.9437 184.188 22.9267 184.025 22.904C183.866 22.8774 183.697 22.8642 183.519 22.8642C183.095 22.8642 182.716 22.9532 182.383 23.1312C182.053 23.3055 181.792 23.5479 181.599 23.8585C181.409 24.1653 181.315 24.5157 181.315 24.9096V30.4324H179.974ZM185.597 30.4324V21.7051H186.938V30.4324H185.597ZM186.279 20.2506C186.017 20.2506 185.792 20.1615 185.603 19.9835C185.417 19.8055 185.324 19.5915 185.324 19.3415C185.324 19.0915 185.417 18.8774 185.603 18.6994C185.792 18.5214 186.017 18.4324 186.279 18.4324C186.54 18.4324 186.764 18.5214 186.949 18.6994C187.139 18.8774 187.233 19.0915 187.233 19.3415C187.233 19.5915 187.139 19.8055 186.949 19.9835C186.764 20.1615 186.54 20.2506 186.279 20.2506ZM189.064 30.4324V21.7051H190.359V23.0687H190.473C190.655 22.6028 190.948 22.2411 191.354 21.9835C191.759 21.7221 192.246 21.5915 192.814 21.5915C193.39 21.5915 193.869 21.7221 194.251 21.9835C194.638 22.2411 194.939 22.6028 195.155 23.0687H195.246C195.469 22.618 195.804 22.26 196.251 21.9949C196.698 21.7259 197.234 21.5915 197.859 21.5915C198.64 21.5915 199.278 21.8358 199.774 22.3244C200.27 22.8093 200.518 23.5649 200.518 24.5915V30.4324H199.178V24.5915C199.178 23.9475 199.001 23.4873 198.649 23.2108C198.297 22.9343 197.882 22.796 197.405 22.796C196.791 22.796 196.316 22.9816 195.979 23.3528C195.642 23.7203 195.473 24.1862 195.473 24.7506V30.4324H194.109V24.4551C194.109 23.9589 193.948 23.5593 193.626 23.2562C193.304 22.9494 192.89 22.796 192.382 22.796C192.034 22.796 191.708 22.8888 191.405 23.0744C191.106 23.26 190.863 23.5176 190.678 23.8471C190.496 24.1729 190.405 24.5498 190.405 24.9778V30.4324H189.064Z" fill="black"/>
<path d="M269.713 20.2506V30.4324H268.48V21.5432H268.42L265.934 23.1937V21.9409L268.48 20.2506H269.713ZM276.07 20.2506V30.4324H274.837V21.5432H274.778L272.292 23.1937V21.9409L274.837 20.2506H276.07ZM282.468 19.7733L279.187 31.9636H278.113L281.394 19.7733H282.468ZM287.268 20.2506V30.4324H286.035V21.5432H285.976L283.49 23.1937V21.9409L286.035 20.2506H287.268ZM293.427 30.5716C293.01 30.5649 292.592 30.4854 292.175 30.3329C291.757 30.1805 291.376 29.9236 291.031 29.5623C290.686 29.1978 290.41 28.7056 290.201 28.0858C289.992 27.4627 289.888 26.6805 289.888 25.7392C289.888 24.8377 289.972 24.0389 290.141 23.3429C290.31 22.6435 290.555 22.0552 290.877 21.578C291.198 21.0974 291.586 20.7328 292.04 20.4842C292.498 20.2356 293.013 20.1113 293.586 20.1113C294.157 20.1113 294.664 20.2257 295.108 20.4544C295.555 20.6798 295.92 20.9946 296.202 21.399C296.483 21.8033 296.666 22.269 296.748 22.796H295.535C295.423 22.3386 295.204 21.9591 294.879 21.6575C294.554 21.3559 294.123 21.2051 293.586 21.2051C292.798 21.2051 292.176 21.5481 291.722 22.2342C291.271 22.9203 291.044 23.8831 291.041 25.1227H291.121C291.306 24.841 291.527 24.6007 291.782 24.4018C292.04 24.1997 292.325 24.0439 292.637 23.9345C292.948 23.8251 293.278 23.7704 293.626 23.7704C294.21 23.7704 294.743 23.9163 295.227 24.2079C295.711 24.4963 296.099 24.8957 296.39 25.4061C296.682 25.9132 296.828 26.4949 296.828 27.1511C296.828 27.7809 296.687 28.3576 296.405 28.8812C296.124 29.4016 295.728 29.8159 295.217 30.1241C294.71 30.4291 294.113 30.5782 293.427 30.5716ZM293.427 29.4778C293.845 29.4778 294.22 29.3734 294.551 29.1646C294.886 28.9558 295.149 28.6757 295.341 28.3244C295.537 27.9731 295.635 27.582 295.635 27.1511C295.635 26.7302 295.54 26.3474 295.351 26.0027C295.166 25.6547 294.909 25.3779 294.581 25.1724C294.256 24.9669 293.885 24.8642 293.467 24.8642C293.152 24.8642 292.859 24.9272 292.587 25.0531C292.315 25.1757 292.077 25.3448 291.871 25.5602C291.669 25.7756 291.51 26.0226 291.394 26.301C291.278 26.5761 291.22 26.8661 291.22 27.171C291.22 27.5754 291.314 27.9532 291.503 28.3045C291.696 28.6559 291.957 28.9392 292.289 29.1547C292.624 29.3701 293.003 29.4778 293.427 29.4778ZM302.252 19.7733L298.971 31.9636H297.897L301.178 19.7733H302.252ZM307.053 20.2506V30.4324H305.82V21.5432H305.76L303.274 23.1937V21.9409L305.82 20.2506H307.053ZM313.073 20.1113C313.49 20.1147 313.908 20.1942 314.325 20.35C314.743 20.5058 315.124 20.7643 315.469 21.1256C315.814 21.4835 316.09 21.9724 316.299 22.5922C316.508 23.212 316.612 23.9892 316.612 24.9239C316.612 25.8287 316.526 26.6324 316.354 27.3351C316.185 28.0344 315.94 28.6244 315.618 29.105C315.3 29.5855 314.912 29.9501 314.455 30.1987C314.001 30.4473 313.487 30.5716 312.913 30.5716C312.343 30.5716 311.835 30.4589 311.387 30.2335C310.943 30.0048 310.578 29.6883 310.293 29.2839C310.012 28.8763 309.831 28.404 309.752 27.867H310.965C311.074 28.3344 311.291 28.7205 311.616 29.0254C311.944 29.327 312.377 29.4778 312.913 29.4778C313.699 29.4778 314.319 29.1348 314.773 28.4487C315.23 27.7626 315.459 26.7932 315.459 25.5403H315.379C315.194 25.8187 314.973 26.059 314.718 26.2612C314.463 26.4634 314.18 26.6192 313.868 26.7285C313.556 26.8379 313.225 26.8926 312.874 26.8926C312.29 26.8926 311.755 26.7484 311.268 26.4601C310.784 26.1684 310.396 25.769 310.105 25.2619C309.816 24.7515 309.672 24.1682 309.672 23.5119C309.672 22.8888 309.811 22.3187 310.09 21.8017C310.371 21.2813 310.766 20.867 311.273 20.5588C311.783 20.2506 312.383 20.1014 313.073 20.1113ZM313.073 21.2051C312.655 21.2051 312.279 21.3095 311.944 21.5183C311.613 21.7238 311.349 22.0022 311.154 22.3535C310.961 22.7015 310.865 23.0877 310.865 23.5119C310.865 23.9362 310.958 24.3223 311.144 24.6703C311.332 25.015 311.589 25.2901 311.914 25.4956C312.242 25.6978 312.615 25.7989 313.033 25.7989C313.348 25.7989 313.641 25.7375 313.913 25.6149C314.185 25.489 314.422 25.3183 314.624 25.1028C314.829 24.8841 314.99 24.6372 315.106 24.3621C315.222 24.0837 315.28 23.7936 315.28 23.492C315.28 23.0943 315.184 22.7214 314.992 22.3734C314.803 22.0254 314.541 21.7437 314.206 21.5283C313.875 21.3128 313.497 21.2051 313.073 21.2051Z" fill="#8E8E93"/>
<path fill-rule="evenodd" clip-rule="evenodd" d="M97.079 50.958L97.7013 51.5803L90.9672 61.0459L88.2375 58.2825L89.3935 56.6565L90.9672 57.5973L97.079 50.958ZM91.6143 50.8187L92.2366 51.441L85.5025 60.9066L80.8647 56.2309L81.9003 55.1954L85.5025 57.458L91.6143 50.8187Z" fill="#3497F9"/>
<path d="M101.934 61.4324V51.2506H103.167V55.7846H108.596V51.2506H109.829V61.4324H108.596V56.8784H103.167V61.4324H101.934ZM115.19 61.5915C114.454 61.5915 113.82 61.4291 113.286 61.1042C112.756 60.7761 112.347 60.3187 112.058 59.7321C111.773 59.1421 111.631 58.456 111.631 57.6739C111.631 56.8917 111.773 56.2023 112.058 55.6057C112.347 55.0058 112.748 54.5384 113.261 54.2037C113.778 53.8656 114.382 53.6966 115.071 53.6966C115.469 53.6966 115.861 53.7629 116.249 53.8954C116.637 54.028 116.99 54.2435 117.308 54.5417C117.626 54.8367 117.88 55.2278 118.069 55.715C118.258 56.2023 118.352 56.8022 118.352 57.5148V58.0119H112.466V56.9977H117.159C117.159 56.5668 117.073 56.1824 116.9 55.8443C116.731 55.5062 116.49 55.2394 116.175 55.0439C115.863 54.8483 115.495 54.7506 115.071 54.7506C114.604 54.7506 114.199 54.8666 113.858 55.0986C113.52 55.3273 113.26 55.6256 113.077 55.9935C112.895 56.3614 112.804 56.7558 112.804 57.1767V57.8528C112.804 58.4295 112.903 58.9184 113.102 59.3194C113.304 59.7172 113.584 60.0204 113.942 60.2292C114.3 60.4347 114.716 60.5375 115.19 60.5375C115.499 60.5375 115.777 60.4944 116.025 60.4082C116.277 60.3187 116.494 60.1862 116.677 60.0105C116.859 59.8315 117 59.6095 117.099 59.3443L118.233 59.6625C118.114 60.047 117.913 60.385 117.631 60.6767C117.35 60.965 117.002 61.1904 116.587 61.3528C116.173 61.5119 115.707 61.5915 115.19 61.5915ZM121.16 51.2506V61.4324H119.987V51.2506H121.16ZM124.333 51.2506V61.4324H123.159V51.2506H124.333ZM129.434 61.5915C128.744 61.5915 128.14 61.4274 127.619 61.0993C127.102 60.7712 126.698 60.3121 126.406 59.7221C126.118 59.1322 125.974 58.4428 125.974 57.654C125.974 56.8585 126.118 56.1641 126.406 55.5709C126.698 54.9776 127.102 54.5169 127.619 54.1888C128.14 53.8606 128.744 53.6966 129.434 53.6966C130.123 53.6966 130.726 53.8606 131.243 54.1888C131.764 54.5169 132.168 54.9776 132.457 55.5709C132.748 56.1641 132.894 56.8585 132.894 57.654C132.894 58.4428 132.748 59.1322 132.457 59.7221C132.168 60.3121 131.764 60.7712 131.243 61.0993C130.726 61.4274 130.123 61.5915 129.434 61.5915ZM129.434 60.5375C129.957 60.5375 130.388 60.4033 130.726 60.1348C131.064 59.8663 131.315 59.5133 131.477 59.0758C131.64 58.6383 131.721 58.1644 131.721 57.654C131.721 57.1435 131.64 56.6679 131.477 56.2271C131.315 55.7863 131.064 55.43 130.726 55.1582C130.388 54.8864 129.957 54.7506 129.434 54.7506C128.91 54.7506 128.479 54.8864 128.141 55.1582C127.803 55.43 127.553 55.7863 127.39 56.2271C127.228 56.6679 127.147 57.1435 127.147 57.654C127.147 58.1644 127.228 58.6383 127.39 59.0758C127.553 59.5133 127.803 59.8663 128.141 60.1348C128.479 60.4033 128.91 60.5375 129.434 60.5375ZM135.39 61.5119C135.145 61.5119 134.934 61.4241 134.759 61.2484C134.583 61.0728 134.495 60.8623 134.495 60.617C134.495 60.3718 134.583 60.1613 134.759 59.9856C134.934 59.81 135.145 59.7221 135.39 59.7221C135.635 59.7221 135.846 59.81 136.022 59.9856C136.197 60.1613 136.285 60.3718 136.285 60.617C136.285 60.7794 136.244 60.9286 136.161 61.0645C136.081 61.2004 135.973 61.3097 135.838 61.3926C135.705 61.4721 135.556 61.5119 135.39 61.5119ZM150.261 51.2506V61.4324H149.068L143.519 53.4381H143.42V61.4324H142.187V51.2506H143.38L148.948 59.2648H149.048V51.2506H150.261ZM155.521 61.5915C154.832 61.5915 154.227 61.4274 153.707 61.0993C153.19 60.7712 152.785 60.3121 152.494 59.7221C152.205 59.1322 152.061 58.4428 152.061 57.654C152.061 56.8585 152.205 56.1641 152.494 55.5709C152.785 54.9776 153.19 54.5169 153.707 54.1888C154.227 53.8606 154.832 53.6966 155.521 53.6966C156.211 53.6966 156.814 53.8606 157.331 54.1888C157.851 54.5169 158.256 54.9776 158.544 55.5709C158.836 56.1641 158.982 56.8585 158.982 57.654C158.982 58.4428 158.836 59.1322 158.544 59.7221C158.256 60.3121 157.851 60.7712 157.331 61.0993C156.814 61.4274 156.211 61.5915 155.521 61.5915ZM155.521 60.5375C156.045 60.5375 156.476 60.4033 156.814 60.1348C157.152 59.8663 157.402 59.5133 157.565 59.0758C157.727 58.6383 157.808 58.1644 157.808 57.654C157.808 57.1435 157.727 56.6679 157.565 56.2271C157.402 55.7863 157.152 55.43 156.814 55.1582C156.476 54.8864 156.045 54.7506 155.521 54.7506C154.998 54.7506 154.567 54.8864 154.229 55.1582C153.891 55.43 153.64 55.7863 153.478 56.2271C153.316 56.6679 153.234 57.1435 153.234 57.654C153.234 58.1644 153.316 58.6383 153.478 59.0758C153.64 59.5133 153.891 59.8663 154.229 60.1348C154.567 60.4033 154.998 60.5375 155.521 60.5375ZM165.435 58.3102V53.796H166.608V61.4324H165.435V60.1398H165.356C165.177 60.5275 164.898 60.8573 164.52 61.1291C164.142 61.3976 163.665 61.5318 163.088 61.5318C162.611 61.5318 162.187 61.4274 161.816 61.2186C161.445 61.0065 161.153 60.6883 160.941 60.264C160.729 59.8365 160.623 59.2979 160.623 58.6483V53.796H161.796V58.5687C161.796 59.1256 161.952 59.5697 162.263 59.9011C162.578 60.2326 162.979 60.3983 163.466 60.3983C163.758 60.3983 164.055 60.3237 164.356 60.1746C164.661 60.0254 164.916 59.7967 165.122 59.4885C165.331 59.1802 165.435 58.7875 165.435 58.3102ZM174.016 55.5062L172.962 55.8045C172.896 55.6289 172.798 55.4582 172.669 55.2925C172.543 55.1234 172.371 54.9842 172.152 54.8748C171.933 54.7655 171.653 54.7108 171.312 54.7108C170.845 54.7108 170.455 54.8185 170.144 55.0339C169.835 55.2461 169.681 55.5162 169.681 55.8443C169.681 56.136 169.787 56.3663 169.999 56.5354C170.211 56.7044 170.543 56.8453 170.994 56.9579L172.127 57.2364C172.81 57.4021 173.319 57.6556 173.653 57.997C173.988 58.3351 174.156 58.7709 174.156 59.3045C174.156 59.742 174.03 60.1331 173.778 60.4778C173.529 60.8225 173.181 61.0943 172.734 61.2932C172.286 61.492 171.766 61.5915 171.173 61.5915C170.394 61.5915 169.749 61.4224 169.239 61.0844C168.728 60.7463 168.405 60.2524 168.269 59.6028L169.383 59.3244C169.489 59.7354 169.689 60.0436 169.984 60.2491C170.283 60.4546 170.672 60.5574 171.153 60.5574C171.7 60.5574 172.134 60.4414 172.455 60.2094C172.78 59.974 172.943 59.6923 172.943 59.3642C172.943 59.099 172.85 58.877 172.664 58.698C172.479 58.5157 172.193 58.3798 171.809 58.2903L170.536 57.992C169.837 57.8263 169.323 57.5694 168.995 57.2214C168.67 56.8701 168.508 56.431 168.508 55.904C168.508 55.4731 168.629 55.0919 168.871 54.7605C169.116 54.4291 169.449 54.1689 169.87 53.98C170.294 53.791 170.775 53.6966 171.312 53.6966C172.068 53.6966 172.661 53.8623 173.092 54.1937C173.526 54.5252 173.834 54.9627 174.016 55.5062ZM181.806 61.6114C181.323 61.6114 180.883 61.5202 180.489 61.3379C180.095 61.1523 179.781 60.8855 179.549 60.5375C179.317 60.1862 179.201 59.7619 179.201 59.2648C179.201 58.8273 179.287 58.4726 179.46 58.2008C179.632 57.9257 179.863 57.7103 180.151 57.5545C180.439 57.3988 180.757 57.2828 181.105 57.2065C181.457 57.127 181.81 57.064 182.164 57.0176C182.628 56.9579 183.005 56.9132 183.293 56.8834C183.585 56.8502 183.797 56.7955 183.929 56.7193C184.065 56.6431 184.133 56.5105 184.133 56.3216V56.2818C184.133 55.7913 183.999 55.4101 183.73 55.1383C183.465 54.8666 183.063 54.7307 182.522 54.7307C181.962 54.7307 181.523 54.8533 181.205 55.0986C180.887 55.3438 180.663 55.6057 180.534 55.8841L179.42 55.4863C179.619 55.0223 179.884 54.6611 180.216 54.4025C180.55 54.1407 180.915 53.9584 181.309 53.8557C181.707 53.7496 182.098 53.6966 182.483 53.6966C182.728 53.6966 183.01 53.7264 183.328 53.7861C183.649 53.8424 183.959 53.9601 184.257 54.139C184.559 54.318 184.809 54.5881 185.008 54.9494C185.207 55.3107 185.306 55.7946 185.306 56.4011V61.4324H184.133V60.3983H184.073C183.994 60.564 183.861 60.7413 183.676 60.9302C183.49 61.1192 183.243 61.2799 182.935 61.4125C182.627 61.5451 182.251 61.6114 181.806 61.6114ZM181.985 60.5574C182.449 60.5574 182.841 60.4662 183.159 60.2839C183.48 60.1016 183.722 59.8663 183.885 59.578C184.05 59.2896 184.133 58.9864 184.133 58.6682V57.5943C184.083 57.654 183.974 57.7087 183.805 57.7584C183.639 57.8048 183.447 57.8462 183.228 57.8827C183.013 57.9158 182.802 57.9456 182.597 57.9721C182.395 57.9953 182.231 58.0152 182.105 58.0318C181.8 58.0716 181.515 58.1362 181.25 58.2257C180.988 58.3119 180.776 58.4428 180.613 58.6185C180.454 58.7908 180.375 59.0261 180.375 59.3244C180.375 59.7321 180.525 60.0403 180.827 60.2491C181.132 60.4546 181.518 60.5574 181.985 60.5574ZM193.269 53.796L190.445 61.4324H189.252L186.428 53.796H187.701L189.809 59.8812H189.888L191.996 53.796H193.269ZM197.496 61.5915C196.807 61.5915 196.202 61.4274 195.682 61.0993C195.165 60.7712 194.76 60.3121 194.469 59.7221C194.18 59.1322 194.036 58.4428 194.036 57.654C194.036 56.8585 194.18 56.1641 194.469 55.5709C194.76 54.9776 195.165 54.5169 195.682 54.1888C196.202 53.8606 196.807 53.6966 197.496 53.6966C198.186 53.6966 198.789 53.8606 199.306 54.1888C199.826 54.5169 200.231 54.9776 200.519 55.5709C200.811 56.1641 200.957 56.8585 200.957 57.654C200.957 58.4428 200.811 59.1322 200.519 59.7221C200.231 60.3121 199.826 60.7712 199.306 61.0993C198.789 61.4274 198.186 61.5915 197.496 61.5915ZM197.496 60.5375C198.02 60.5375 198.451 60.4033 198.789 60.1348C199.127 59.8663 199.377 59.5133 199.54 59.0758C199.702 58.6383 199.783 58.1644 199.783 57.654C199.783 57.1435 199.702 56.6679 199.54 56.2271C199.377 55.7863 199.127 55.43 198.789 55.1582C198.451 54.8864 198.02 54.7506 197.496 54.7506C196.973 54.7506 196.542 54.8864 196.204 55.1582C195.866 55.43 195.615 55.7863 195.453 56.2271C195.291 56.6679 195.209 57.1435 195.209 57.654C195.209 58.1644 195.291 58.6383 195.453 59.0758C195.615 59.5133 195.866 59.8663 196.204 60.1348C196.542 60.4033 196.973 60.5375 197.496 60.5375ZM203.771 56.8386V61.4324H202.598V53.796H203.731V54.9892H203.83C204.009 54.6014 204.281 54.2899 204.646 54.0545C205.01 53.8159 205.481 53.6966 206.058 53.6966C206.575 53.6966 207.027 53.8026 207.415 54.0148C207.803 54.2236 208.104 54.5417 208.32 54.9693C208.535 55.3935 208.643 55.9305 208.643 56.5801V61.4324H207.47V56.6596C207.47 56.0597 207.314 55.5924 207.002 55.2577C206.691 54.9196 206.263 54.7506 205.72 54.7506C205.345 54.7506 205.01 54.8318 204.715 54.9942C204.424 55.1566 204.193 55.3935 204.024 55.7051C203.855 56.0167 203.771 56.3945 203.771 56.8386ZM216.046 55.5062L214.992 55.8045C214.926 55.6289 214.828 55.4582 214.699 55.2925C214.573 55.1234 214.4 54.9842 214.182 54.8748C213.963 54.7655 213.683 54.7108 213.342 54.7108C212.874 54.7108 212.485 54.8185 212.173 55.0339C211.865 55.2461 211.711 55.5162 211.711 55.8443C211.711 56.136 211.817 56.3663 212.029 56.5354C212.241 56.7044 212.573 56.8453 213.023 56.9579L214.157 57.2364C214.84 57.4021 215.348 57.6556 215.683 57.997C216.018 58.3351 216.185 58.7709 216.185 59.3045C216.185 59.742 216.059 60.1331 215.807 60.4778C215.559 60.8225 215.211 61.0943 214.763 61.2932C214.316 61.492 213.796 61.5915 213.202 61.5915C212.423 61.5915 211.779 61.4224 211.268 61.0844C210.758 60.7463 210.435 60.2524 210.299 59.6028L211.413 59.3244C211.519 59.7354 211.719 60.0436 212.014 60.2491C212.312 60.4546 212.702 60.5574 213.182 60.5574C213.729 60.5574 214.164 60.4414 214.485 60.2094C214.81 59.974 214.972 59.6923 214.972 59.3642C214.972 59.099 214.879 58.877 214.694 58.698C214.508 58.5157 214.223 58.3798 213.839 58.2903L212.566 57.992C211.867 57.8263 211.353 57.5694 211.025 57.2214C210.7 56.8701 210.538 56.431 210.538 55.904C210.538 55.4731 210.659 55.0919 210.9 54.7605C211.146 54.4291 211.479 54.1689 211.9 53.98C212.324 53.791 212.805 53.6966 213.342 53.6966C214.097 53.6966 214.691 53.8623 215.121 54.1937C215.556 54.5252 215.864 54.9627 216.046 55.5062ZM226.401 58.3102V53.796H227.575V61.4324H226.401V60.1398H226.322C226.143 60.5275 225.865 60.8573 225.487 61.1291C225.109 61.3976 224.632 61.5318 224.055 61.5318C223.578 61.5318 223.153 61.4274 222.782 61.2186C222.411 61.0065 222.119 60.6883 221.907 60.264C221.695 59.8365 221.589 59.2979 221.589 58.6483V53.796H222.762V58.5687C222.762 59.1256 222.918 59.5697 223.23 59.9011C223.544 60.2326 223.945 60.3983 224.433 60.3983C224.724 60.3983 225.021 60.3237 225.323 60.1746C225.628 60.0254 225.883 59.7967 226.088 59.4885C226.297 59.1802 226.401 58.7875 226.401 58.3102ZM230.747 56.8386V61.4324H229.574V53.796H230.707V54.9892H230.807C230.986 54.6014 231.257 54.2899 231.622 54.0545C231.987 53.8159 232.457 53.6966 233.034 53.6966C233.551 53.6966 234.003 53.8026 234.391 54.0148C234.779 54.2236 235.081 54.5417 235.296 54.9693C235.511 55.3935 235.619 55.9305 235.619 56.5801V61.4324H234.446V56.6596C234.446 56.0597 234.29 55.5924 233.979 55.2577C233.667 54.9196 233.239 54.7506 232.696 54.7506C232.321 54.7506 231.987 54.8318 231.692 54.9942C231.4 55.1566 231.17 55.3935 231.001 55.7051C230.832 56.0167 230.747 56.3945 230.747 56.8386ZM240.815 61.5915C240.079 61.5915 239.444 61.4291 238.911 61.1042C238.38 60.7761 237.971 60.3187 237.683 59.7321C237.398 59.1421 237.255 58.456 237.255 57.6739C237.255 56.8917 237.398 56.2023 237.683 55.6057C237.971 55.0058 238.372 54.5384 238.886 54.2037C239.403 53.8656 240.006 53.6966 240.696 53.6966C241.093 53.6966 241.486 53.7629 241.874 53.8954C242.262 54.028 242.615 54.2435 242.933 54.5417C243.251 54.8367 243.505 55.2278 243.693 55.715C243.882 56.2023 243.977 56.8022 243.977 57.5148V58.0119H238.09V56.9977H242.784C242.784 56.5668 242.697 56.1824 242.525 55.8443C242.356 55.5062 242.114 55.2394 241.799 55.0439C241.488 54.8483 241.12 54.7506 240.696 54.7506C240.228 54.7506 239.824 54.8666 239.482 55.0986C239.144 55.3273 238.884 55.6256 238.702 55.9935C238.52 56.3614 238.429 56.7558 238.429 57.1767V57.8528C238.429 58.4295 238.528 58.9184 238.727 59.3194C238.929 59.7172 239.209 60.0204 239.567 60.2292C239.925 60.4347 240.341 60.5375 240.815 60.5375C241.123 60.5375 241.402 60.4944 241.65 60.4082C241.902 60.3187 242.119 60.1862 242.301 60.0105C242.484 59.8315 242.625 59.6095 242.724 59.3443L243.857 59.6625C243.738 60.047 243.538 60.385 243.256 60.6767C242.974 60.965 242.626 61.1904 242.212 61.3528C241.798 61.5119 241.332 61.5915 240.815 61.5915ZM249.399 61.4324V53.796H250.533V54.9892H250.632C250.791 54.5815 251.048 54.265 251.403 54.0396C251.757 53.8109 252.183 53.6966 252.68 53.6966C253.184 53.6966 253.603 53.8109 253.938 54.0396C254.276 54.265 254.54 54.5815 254.729 54.9892H254.808C255.004 54.5948 255.297 54.2816 255.688 54.0496C256.079 53.8142 256.548 53.6966 257.095 53.6966C257.778 53.6966 258.336 53.9104 258.771 54.3379C259.205 54.7622 259.422 55.4234 259.422 56.3216V61.4324H258.249V56.3216C258.249 55.7581 258.094 55.3554 257.786 55.1135C257.478 54.8715 257.115 54.7506 256.697 54.7506C256.16 54.7506 255.745 54.913 255.45 55.2378C255.155 55.5593 255.007 55.9669 255.007 56.4608V61.4324H253.814V56.2023C253.814 55.7681 253.673 55.4184 253.391 55.1533C253.11 54.8848 252.747 54.7506 252.303 54.7506C251.998 54.7506 251.713 54.8318 251.447 54.9942C251.186 55.1566 250.973 55.3819 250.811 55.6703C250.652 55.9553 250.572 56.2851 250.572 56.6596V61.4324H249.399ZM261.417 61.4324V53.796H262.59V61.4324H261.417ZM262.014 52.5233C261.785 52.5233 261.588 52.4454 261.422 52.2896C261.26 52.1338 261.178 51.9466 261.178 51.7278C261.178 51.5091 261.26 51.3218 261.422 51.166C261.588 51.0103 261.785 50.9324 262.014 50.9324C262.242 50.9324 262.438 51.0103 262.6 51.166C262.766 51.3218 262.849 51.5091 262.849 51.7278C262.849 51.9466 262.766 52.1338 262.6 52.2896C262.438 52.4454 262.242 52.5233 262.014 52.5233ZM269.998 55.5062L268.944 55.8045C268.878 55.6289 268.78 55.4582 268.651 55.2925C268.525 55.1234 268.353 54.9842 268.134 54.8748C267.915 54.7655 267.635 54.7108 267.294 54.7108C266.827 54.7108 266.437 54.8185 266.126 55.0339C265.817 55.2461 265.663 55.5162 265.663 55.8443C265.663 56.136 265.769 56.3663 265.981 56.5354C266.194 56.7044 266.525 56.8453 266.976 56.9579L268.109 57.2364C268.792 57.4021 269.301 57.6556 269.636 57.997C269.97 58.3351 270.138 58.7709 270.138 59.3045C270.138 59.742 270.012 60.1331 269.76 60.4778C269.511 60.8225 269.163 61.0943 268.716 61.2932C268.268 61.492 267.748 61.5915 267.155 61.5915C266.376 61.5915 265.731 61.4224 265.221 61.0844C264.71 60.7463 264.387 60.2524 264.251 59.6028L265.365 59.3244C265.471 59.7354 265.671 60.0436 265.966 60.2491C266.265 60.4546 266.654 60.5574 267.135 60.5574C267.682 60.5574 268.116 60.4414 268.437 60.2094C268.762 59.974 268.925 59.6923 268.925 59.3642C268.925 59.099 268.832 58.877 268.646 58.698C268.461 58.5157 268.176 58.3798 267.791 58.2903L266.518 57.992C265.819 57.8263 265.305 57.5694 264.977 57.2214C264.652 56.8701 264.49 56.431 264.49 55.904C264.49 55.4731 264.611 55.0919 264.853 54.7605C265.098 54.4291 265.431 54.1689 265.852 53.98C266.276 53.791 266.757 53.6966 267.294 53.6966C268.05 53.6966 268.643 53.8623 269.074 54.1937C269.508 54.5252 269.816 54.9627 269.998 55.5062ZM277.163 55.5062L276.109 55.8045C276.043 55.6289 275.945 55.4582 275.816 55.2925C275.69 55.1234 275.517 54.9842 275.299 54.8748C275.08 54.7655 274.8 54.7108 274.458 54.7108C273.991 54.7108 273.602 54.8185 273.29 55.0339C272.982 55.2461 272.828 55.5162 272.828 55.8443C272.828 56.136 272.934 56.3663 273.146 56.5354C273.358 56.7044 273.689 56.8453 274.14 56.9579L275.274 57.2364C275.956 57.4021 276.465 57.6556 276.8 57.997C277.135 58.3351 277.302 58.7709 277.302 59.3045C277.302 59.742 277.176 60.1331 276.924 60.4778C276.676 60.8225 276.328 61.0943 275.88 61.2932C275.433 61.492 274.912 61.5915 274.319 61.5915C273.54 61.5915 272.896 61.4224 272.385 61.0844C271.875 60.7463 271.552 60.2524 271.416 59.6028L272.529 59.3244C272.635 59.7354 272.836 60.0436 273.131 60.2491C273.429 60.4546 273.819 60.5574 274.299 60.5574C274.846 60.5574 275.28 60.4414 275.602 60.2094C275.927 59.974 276.089 59.6923 276.089 59.3642C276.089 59.099 275.996 58.877 275.811 58.698C275.625 58.5157 275.34 58.3798 274.956 58.2903L273.683 57.992C272.983 57.8263 272.47 57.5694 272.142 57.2214C271.817 56.8701 271.654 56.431 271.654 55.904C271.654 55.4731 271.775 55.0919 272.017 54.7605C272.263 54.4291 272.596 54.1689 273.017 53.98C273.441 53.791 273.921 53.6966 274.458 53.6966C275.214 53.6966 275.807 53.8623 276.238 54.1937C276.672 54.5252 276.981 54.9627 277.163 55.5062ZM278.918 61.4324V53.796H280.092V61.4324H278.918ZM279.515 52.5233C279.286 52.5233 279.089 52.4454 278.923 52.2896C278.761 52.1338 278.68 51.9466 278.68 51.7278C278.68 51.5091 278.761 51.3218 278.923 51.166C279.089 51.0103 279.286 50.9324 279.515 50.9324C279.744 50.9324 279.939 51.0103 280.101 51.166C280.267 51.3218 280.35 51.5091 280.35 51.7278C280.35 51.9466 280.267 52.1338 280.101 52.2896C279.939 52.4454 279.744 52.5233 279.515 52.5233ZM285.193 61.5915C284.503 61.5915 283.899 61.4274 283.378 61.0993C282.861 60.7712 282.457 60.3121 282.165 59.7221C281.877 59.1322 281.733 58.4428 281.733 57.654C281.733 56.8585 281.877 56.1641 282.165 55.5709C282.457 54.9776 282.861 54.5169 283.378 54.1888C283.899 53.8606 284.503 53.6966 285.193 53.6966C285.882 53.6966 286.485 53.8606 287.002 54.1888C287.523 54.5169 287.927 54.9776 288.216 55.5709C288.507 56.1641 288.653 56.8585 288.653 57.654C288.653 58.4428 288.507 59.1322 288.216 59.7221C287.927 60.3121 287.523 60.7712 287.002 61.0993C286.485 61.4274 285.882 61.5915 285.193 61.5915ZM285.193 60.5375C285.716 60.5375 286.147 60.4033 286.485 60.1348C286.823 59.8663 287.074 59.5133 287.236 59.0758C287.399 58.6383 287.48 58.1644 287.48 57.654C287.48 57.1435 287.399 56.6679 287.236 56.2271C287.074 55.7863 286.823 55.43 286.485 55.1582C286.147 54.8864 285.716 54.7506 285.193 54.7506C284.669 54.7506 284.238 54.8864 283.9 55.1582C283.562 55.43 283.312 55.7863 283.149 56.2271C282.987 56.6679 282.906 57.1435 282.906 57.654C282.906 58.1644 282.987 58.6383 283.149 59.0758C283.312 59.5133 283.562 59.8663 283.9 60.1348C284.238 60.4033 284.669 60.5375 285.193 60.5375ZM291.467 56.8386V61.4324H290.294V53.796H291.428V54.9892H291.527C291.706 54.6014 291.978 54.2899 292.342 54.0545C292.707 53.8159 293.178 53.6966 293.754 53.6966C294.271 53.6966 294.724 53.8026 295.112 54.0148C295.499 54.2236 295.801 54.5417 296.016 54.9693C296.232 55.3935 296.339 55.9305 296.339 56.5801V61.4324H295.166V56.6596C295.166 56.0597 295.01 55.5924 294.699 55.2577C294.387 54.9196 293.96 54.7506 293.416 54.7506C293.042 54.7506 292.707 54.8318 292.412 54.9942C292.12 55.1566 291.89 55.3935 291.721 55.7051C291.552 56.0167 291.467 56.3945 291.467 56.8386ZM299.189 61.5119C298.943 61.5119 298.733 61.4241 298.557 61.2484C298.382 61.0728 298.294 60.8623 298.294 60.617C298.294 60.3718 298.382 60.1613 298.557 59.9856C298.733 59.81 298.943 59.7221 299.189 59.7221C299.434 59.7221 299.644 59.81 299.82 59.9856C299.996 60.1613 300.083 60.3718 300.083 60.617C300.083 60.7794 300.042 60.9286 299.959 61.0645C299.88 61.2004 299.772 61.3097 299.636 61.3926C299.503 61.4721 299.354 61.5119 299.189 61.5119ZM302.894 61.5119C302.649 61.5119 302.438 61.4241 302.263 61.2484C302.087 61.0728 301.999 60.8623 301.999 60.617C301.999 60.3718 302.087 60.1613 302.263 59.9856C302.438 59.81 302.649 59.7221 302.894 59.7221C303.139 59.7221 303.35 59.81 303.525 59.9856C303.701 60.1613 303.789 60.3718 303.789 60.617C303.789 60.7794 303.748 60.9286 303.665 61.0645C303.585 61.2004 303.477 61.3097 303.342 61.3926C303.209 61.4721 303.06 61.5119 302.894 61.5119ZM306.6 61.5119C306.354 61.5119 306.144 61.4241 305.968 61.2484C305.792 61.0728 305.705 60.8623 305.705 60.617C305.705 60.3718 305.792 60.1613 305.968 59.9856C306.144 59.81 306.354 59.7221 306.6 59.7221C306.845 59.7221 307.055 59.81 307.231 59.9856C307.407 60.1613 307.494 60.3718 307.494 60.617C307.494 60.7794 307.453 60.9286 307.37 61.0645C307.291 61.2004 307.183 61.3097 307.047 61.3926C306.914 61.4721 306.765 61.5119 306.6 61.5119Z" fill="#8E8E93"/>
</svg>
